<svg xmlns="http://www.w3.org/2000/svg" xmlns:xlink="http://www.w3.org/1999/xlink" id="Layer_1" x="0" y="0" version="1.1" viewBox="0 0 1299.5 248" xml:space="preserve" style="enable-background:new 0 0 1299.5 248"><style type="text/css">.st0{fill:#0065d0}.st1{fill:#fff}.st2{font-family:&apos;Roboto-Medium&apos;}.st3{font-size:145.5039px}</style><circle cx="125.9" cy="123.6" r="122.6" class="st0"/><g><path d="M130.5,175.3h-12V70.6h12V175.3z" class="st1"/><path d="M88.4,147.2c-3.3,5.9-4.5,11.4-4.5,18.7c0,22.4,18.2,40.6,40.6,40.6s40.6-18.2,40.6-40.6 c0-19-13.1-35-30.7-39.4v12.1c11.1,4.1,19.1,14.7,19.1,27.3c0,16-13,29-29,29s-29-13-29-29c0-5.9,1.8-11,4.9-15.5l2.1,19.2 l11.6-1.5l-5.6-36.7L72,138.8l2.1,12.2L88.4,147.2z" class="st1"/><path d="M162.3,96.3c2.4-5.2,2.9-9,2.9-15c0-22.4-18.2-40.6-40.6-40.6S84,58.9,84,81.3c0,19,13.1,35,30.7,39.4v-12.1 c-11.1-4.1-19.1-14.7-19.1-27.3c0-16,13-29,29-29s29,13,29,29c0,4-0.8,7.9-2.3,11.4l-6.5-17.1l-10.7,3.3l10.3,36l35.3-13l-4.3-10.1 L162.3,96.3z" class="st1"/></g><text class="st2 st3" transform="matrix(1 0 0 1 367.7328 166.0479)">yearn.finance</text></svg>