<svg xmlns="http://www.w3.org/2000/svg" xmlns:svg="http://www.w3.org/2000/svg" id="图层_1" x="0" y="0" version="1.1" viewBox="0 0 894 716" xml:space="preserve" style="enable-background:new 0 0 894 716"><metadata id="metadata63"/><style id="style2" type="text/css">.st0{fill:url(#SVGID_1_)}.st1{fill:url(#SVGID_2_)}</style><g id="g18"><linearGradient id="SVGID_1_" x1="347" x2="534.269" y1="286.653" y2="286.653" gradientUnits="userSpaceOnUse"><stop style="stop-color:#2d2d4c" id="stop4" offset="0"/><stop style="stop-color:#1e1e3a" id="stop6" offset="1"/></linearGradient><path id="path9" d="M493.1,311.4c5.4-8.1,8.4-17.7,8.4-28c0-28.9-24.3-52.4-54.4-52.4c-13.4,0-25.7,4.7-35.1,12.4 c-0.3,0.2-0.6,0.4-0.9,0.7c-0.1,0.1-0.2,0.2-0.4,0.3c-0.1,0.1-0.3,0.3-0.4,0.4c-0.4,0.3-0.7,0.6-1.1,1c-0.5,0.5-1,1-1.4,1.5 c-5.8,6.1-9.8,14-11.9,22.5c0,0.1-0.1,0.2-0.1,0.4c-4.1,13.8-4.5,31.3,4.4,50.2c14.7,31.5,50.9,48.6,91.1,47.5c0.1,0,0.1,0,0.2,0 c4.6-0.1,6.3,6,2.3,8.1c-13.8,7.2-29.6,11.2-46.2,11.2c-55.6,0-100.6-45-100.6-100.6c0-51.9,39.4-94.7,89.9-100 c3.5-0.4,7.1-0.6,10.7-0.6c22.1,0,42.6,7.1,59.2,19.2l0,0c4.5,3.3,8.7,6.9,12.6,10.9c9.3,10.5,14.9,24,14.9,38.8 C534.3,281,517.1,303.2,493.1,311.4z" class="st0"/><linearGradient id="SVGID_2_" x1="399.945" x2="547" y1="285.491" y2="285.491" gradientUnits="userSpaceOnUse"><stop style="stop-color:#8592b9" id="stop11" offset="0"/><stop style="stop-color:#6d5d91" id="stop13" offset="1"/></linearGradient><path id="path16" d="M547,286.1c0,0.2,0,0.4,0,0.6c-0.2,32.6-22.1,60.3-52.6,66.7c-3.7,0.8-7.8,1.3-10.9,1.6 c-36.9,3-65-14.3-77.5-42.4c-1.8-4-3.1-8-4-11.8c-0.8-3.2-1.4-6.3-1.7-9.4c0-0.1,0-0.2,0-0.3c-0.8-7.5-0.1-14.5,1.4-20.8 c0-0.1,0-0.2,0-0.3c0.1-0.3,0.2-0.6,0.2-0.9c0.5-2.1,1.5-4,2.6-5.7c3.5-5.1,11.3-3.5,12.6,2.5c1.3,6.4,3.3,13.8,5.8,18.2 c10.2,18,29.4,30.2,51.5,30.2c7,0,13.8-1.2,20.1-3.5c22.9-8.3,39.2-30.4,39.2-56.4c0-14.8-5.4-28.3-14.2-38.8 c14.4,15.4,24.3,35.7,26.8,58.3C546.8,278,547,282,547,286.1z" class="st1"/></g></svg>